<svg width="27" height="30" viewBox="0 0 27 30" fill="none" xmlns="http://www.w3.org/2000/svg">
<path d="M3.31641 3.78965C3.31641 3.26644 3.74056 2.84229 4.26377 2.84229H7.10588C7.6291 2.84229 8.05325 3.26644 8.05325 3.78965V23.2107C8.05325 23.7339 7.6291 24.1581 7.10588 24.1581H4.26377C3.74056 24.1581 3.31641 23.7339 3.31641 23.2107V3.78965Z" fill="black"/>
<path d="M8.52637 0.947368C8.52637 0.424151 8.95052 0 9.47374 0H12.3158C12.8391 0 13.2632 0.424151 13.2632 0.947368V23.2105C13.2632 23.7337 12.8391 24.1579 12.3158 24.1579H9.47373C8.95052 24.1579 8.52637 23.7337 8.52637 23.2105V0.947368Z" fill="black"/>
<path d="M13.5168 3.59945C13.377 3.09525 13.6724 2.57319 14.1766 2.43339L16.9154 1.67399C17.4196 1.53419 17.9416 1.82958 18.0814 2.33378L23.4857 21.8243C23.6255 22.3285 23.3301 22.8506 22.8259 22.9904L20.0872 23.7498C19.583 23.8896 19.0609 23.5942 18.9211 23.09L13.5168 3.59945Z" fill="black"/>
<path d="M0 24.6315C0 24.1082 0.424151 23.6841 0.947368 23.6841H26.0526C26.5758 23.6841 27 24.1082 27 24.6315V28.4209C27 28.9441 26.5758 29.3683 26.0526 29.3683H0.947368C0.424151 29.3683 0 28.9441 0 28.4209V24.6315Z" fill="black"/>
</svg>
