<svg width="32" height="32" viewBox="0 0 32 32" fill="none" xmlns="http://www.w3.org/2000/svg">
<circle cx="16" cy="16" r="14.5" stroke="black" stroke-width="3"/>
<path fill-rule="evenodd" clip-rule="evenodd" d="M18.726 15.6246C18.9317 17.1611 17.8529 18.5735 16.3163 18.7793C14.7797 18.985 13.3673 17.9062 13.1616 16.3696C12.9559 14.833 14.0347 13.4206 15.5713 13.2149C17.1078 13.0092 18.5202 14.088 18.726 15.6246ZM16.1614 17.3762C16.1853 17.373 16.2089 17.3692 16.2323 17.3649C16.9225 17.2368 17.4101 16.6168 17.3773 15.9206C17.3754 15.8802 17.3717 15.8396 17.3662 15.7988C17.2634 15.0305 16.5572 14.4911 15.7889 14.594C15.6946 14.6066 15.6038 14.6283 15.5171 14.6581C14.8979 14.8711 14.4938 15.4974 14.5841 16.1713C14.5878 16.1992 14.5923 16.2268 14.5976 16.254C14.7383 16.9779 15.421 17.4753 16.1614 17.3762Z" fill="black"/>
<path fill-rule="evenodd" clip-rule="evenodd" d="M13.2257 15.3217L9.24707 25.8539L17.5744 18.2769L16.2323 17.3649C16.2089 17.3692 16.1853 17.373 16.1614 17.3762C15.421 17.4753 14.7383 16.9779 14.5976 16.254L13.2257 15.3217Z" fill="black"/>
<path fill-rule="evenodd" clip-rule="evenodd" d="M18.6324 16.7725L22.5762 6.21851L14.2245 13.7808L15.5171 14.6581C15.6038 14.6283 15.6946 14.6066 15.7889 14.594C16.5572 14.4911 17.2634 15.0305 17.3662 15.7988C17.3717 15.8396 17.3754 15.8802 17.3773 15.9206C17.8674 16.2533 18.1423 16.4398 18.6324 16.7725Z" fill="black"/>
</svg>
