<svg width="27" height="28" viewBox="0 0 27 28" fill="none" xmlns="http://www.w3.org/2000/svg">
<path d="M17.1015 25.9357L17.0932 21.7037C17.0911 20.6313 16.2174 19.7618 15.1372 19.7571L11.1711 19.7649C10.0861 19.7671 9.20829 20.642 9.2104 21.7192V21.7192L9.21869 25.9389C9.22055 26.8691 8.46615 27.6265 7.52932 27.6351L4.82346 27.6404C3.55973 27.6461 2.34565 27.1524 1.44915 26.2681C0.552648 25.3839 0.0474199 24.1817 0.0449587 22.9271L0.0213366 10.9057C0.0193793 9.89223 0.469972 8.92998 1.25173 8.27821L10.4299 0.961461C12.0342 -0.318319 14.3293 -0.281589 15.8912 1.04886L24.9002 8.23174C25.7214 8.8612 26.2135 9.82444 26.2397 10.8542L26.2633 22.8633C26.2684 25.4783 24.1374 27.6024 21.5034 27.6076L18.8593 27.6128C18.4083 27.617 17.9742 27.4422 17.6534 27.1273C17.3327 26.8124 17.1518 26.3835 17.151 25.9356L17.1015 25.9357Z" fill="black"/>
</svg>
