<svg width="35" height="30" viewBox="0 0 35 30" fill="none" xmlns="http://www.w3.org/2000/svg">
<path d="M8.49177 18.0486C12.6106 18.0405 16.13 18.6829 16.1351 21.2805C16.1402 23.879 12.6454 24.5582 8.50458 24.5663C4.38574 24.5744 0.866318 23.9329 0.861212 21.3344C0.856106 18.7359 4.35002 18.0567 8.49177 18.0486Z" fill="black"/>
<path d="M8.48726 15.5743C5.68153 15.5798 3.42908 13.3353 3.42357 10.5305C3.41806 7.72572 5.66167 5.47232 8.4674 5.46681C11.2722 5.4613 13.5256 7.70586 13.5311 10.5106C13.5366 13.3154 11.292 15.5688 8.48726 15.5743Z" fill="black"/>
<path d="M23.5023 19.488C29.6004 19.4761 34.811 20.4273 34.8186 24.273C34.8261 28.1202 29.6518 29.1258 23.5212 29.1378C17.4231 29.1498 12.2125 28.2 12.2049 24.3528C12.1973 20.5056 17.3702 19.5001 23.5023 19.488Z" fill="black"/>
<path d="M23.4956 15.8248C19.3416 15.833 16.0067 12.5098 15.9986 8.35724C15.9904 4.20465 19.3122 0.868407 23.4662 0.860244C27.6188 0.852085 30.955 4.17525 30.9632 8.32784C30.9713 12.4804 27.6482 15.8167 23.4956 15.8248Z" fill="black"/>
</svg>
